#N canvas 594 114 656 433 10;
#X obj 11 100 tgl 150 1 loop1Go loop1Go-r REC1 10 70 0 50 -4034 -1
-1 0 1;
#X obj 168 100 tgl 150 1 loop1_cut Loop1Cut-r PLAY1 2 70 0 50 -262144
-1 -1 1 1;
#N canvas 294 75 844 665 audio 0;
#X obj 20 32 cnv 15 500 600 empty empty empty 20 12 0 14 -233017 -66577
0;
#X obj 307 617 dac~;
#X obj 39 43 loadbang;
#X obj 407 63 adc~;
#X obj 415 305 tabwrite~ loop1;
#X obj 36 202 table loop1;
#X obj 412 365 tabplay~ loop1;
#X obj 251 71 sel 0 1;
#X obj 40 545 timer;
#X obj 36 228 table loop2;
#X obj 415 213 *~;
#N canvas 1 102 1351 665 loop2 0;
#X obj 203 13 r loop2Go;
#X obj 88 623 tabwrite~ loop2;
#X obj 55 259 adc~;
#X obj 63 441 *~;
#X obj 842 167 s loop2;
#X obj 269 571 *~;
#X obj 372 575 r Loop2Cut;
#X msg 842 143 const 0;
#X obj 842 109 r loop2Reset;
#X obj 799 394 s loop2;
#X msg 828 364 resize \$1;
#X obj 856 394 s rec;
#X obj 694 162 r Smpl1Lenght;
#X obj 63 325 hip~ 50;
#X obj 62 352 lop~ 9000;
#X obj 739 251 samplerate~;
#X obj 740 276 / 1000;
#X obj 739 225 loadbang;
#X obj 203 37 sel 0 1;
#X obj 79 386 r loop2Som;
#X obj 203 84 t b b;
#X obj 64 288 *~ 0.5;
#X obj 336 85 t b b;
#X obj 725 302 *;
#X obj 795 228 bng 15 250 50 0 empty empty empty 17 7 0 10 -262144
-1 -1;
#X obj 694 199 t f f;
#X obj 504 454 pack 0 0;
#X obj 502 429 f;
#X obj 532 429 f;
#X obj 114 541 tabplay~ loop2;
#X obj 229 471 pack 0 0;
#X obj 227 446 f;
#X obj 257 446 f;
#X obj 702 402 *;
#X obj 607 164 r skipp;
#X obj 651 538 s skippS;
#X obj 456 296 r skippS;
#X obj 432 321 f;
#X obj 984 221 r skippS;
#X obj 1108 219 samplerate~;
#X obj 1110 242 / 1000;
#X obj 1089 185 loadbang;
#X obj 1145 188 bng 15 250 50 0 empty empty empty 17 7 0 10 -262144
-1 -1;
#X obj 490 385 t b b;
#X obj 213 275 t b b b b b;
#X obj 249 347 delay;
#X obj 975 337 s skipp2end;
#X obj 549 383 r skipp2end;
#X obj 275 325 r skipp2end;
#X obj 284 371 t b b b;
#X msg 381 409 0;
#X obj 207 410 r skippS;
#X obj 975 280 expr (size("loop2") - $f1) / $f2 \; $f1 / $f2;
#X obj 1170 335 s zero2skipp;
#X obj 288 412 r zero2skipp;
#X obj 449 547 print;
#X obj 454 522 spigot;
#X obj 498 488 tgl 15 0 empty empty empty 17 7 0 10 -262144 -1 -1 0
1;
#X msg 336 194 \; loop2Som 1 5 \;;
#X msg 230 109 \; loop2Som 0 5 \;;
#X obj 203 145 delay 5;
#X obj 270 519 line~;
#X obj 273 598 outlet~;
#X obj 270 545 tabread~ loop2;
#X obj 668 379 f;
#X obj 704 328 t f b f f;
#X obj 79 411 line~;
#X obj 213 245 r loop1ctrl;
#X msg 363 114 \; masterMute 0 \;;
#X obj 336 157 delay 5;
#X obj 434 156 r latTest;
#X msg 203 172 \; masterMute 1 \; Loop2Cut-r 1 \;;
#X connect 0 0 18 0;
#X connect 2 0 21 0;
#X connect 2 1 21 0;
#X connect 3 0 1 0;
#X connect 5 0 62 0;
#X connect 6 0 5 1;
#X connect 7 0 4 0;
#X connect 8 0 7 0;
#X connect 10 0 9 0;
#X connect 10 0 11 0;
#X connect 12 0 25 0;
#X connect 13 0 14 0;
#X connect 14 0 3 0;
#X connect 15 0 16 0;
#X connect 16 0 23 1;
#X connect 17 0 15 0;
#X connect 18 0 20 0;
#X connect 18 1 22 0;
#X connect 19 0 66 0;
#X connect 20 0 60 0;
#X connect 20 1 59 0;
#X connect 21 0 13 0;
#X connect 22 0 69 0;
#X connect 22 1 68 0;
#X connect 23 0 65 0;
#X connect 24 0 15 0;
#X connect 25 0 23 0;
#X connect 26 0 56 0;
#X connect 26 0 61 0;
#X connect 27 0 26 0;
#X connect 28 0 26 1;
#X connect 29 0 1 0;
#X connect 30 0 56 0;
#X connect 30 0 61 0;
#X connect 31 0 30 0;
#X connect 32 0 30 1;
#X connect 33 0 35 0;
#X connect 34 0 64 1;
#X connect 34 0 33 0;
#X connect 36 0 37 1;
#X connect 37 0 56 0;
#X connect 37 0 61 0;
#X connect 38 0 52 0;
#X connect 39 0 40 0;
#X connect 40 0 52 1;
#X connect 41 0 39 0;
#X connect 42 0 39 0;
#X connect 43 0 27 0;
#X connect 43 1 28 0;
#X connect 44 0 1 0;
#X connect 44 1 29 0;
#X connect 44 2 45 0;
#X connect 44 3 43 0;
#X connect 44 4 37 0;
#X connect 45 0 49 0;
#X connect 47 0 28 1;
#X connect 48 0 45 1;
#X connect 49 0 31 0;
#X connect 49 1 32 0;
#X connect 49 2 50 0;
#X connect 50 0 56 0;
#X connect 50 0 61 0;
#X connect 51 0 31 1;
#X connect 52 0 46 0;
#X connect 52 1 53 0;
#X connect 54 0 32 1;
#X connect 56 0 55 0;
#X connect 57 0 56 1;
#X connect 60 0 71 0;
#X connect 61 0 63 0;
#X connect 63 0 5 0;
#X connect 64 0 33 0;
#X connect 65 0 27 1;
#X connect 65 1 64 0;
#X connect 65 2 33 1;
#X connect 65 3 10 0;
#X connect 66 0 3 1;
#X connect 67 0 44 0;
#X connect 69 0 58 0;
#X connect 70 0 69 1;
#X restore 256 380 pd loop2;
#X obj 309 438 hip~ 5;
#X obj 309 491 clip~ -1 1;
#X obj 313 573 *~;
#X obj 417 93 hip~ 50;
#N canvas 198 276 450 379 SAVE 0;
#X obj -8 256 catch~ torec;
#X obj 78 309 soundfiler;
#X obj -45 305 tabwrite~ rec;
#X obj 78 205 pack f f;
#X obj 78 122 f;
#X obj 111 121 + 1;
#X msg 78 226 symbol \$1_\$2;
#X obj 78 251 makefilename %s.wav;
#X msg 78 283 write -wave \$1 rec;
#X obj 123 174 int;
#X obj 118 48 r wordbutton-save;
#X obj 78 99 b;
#X obj 123 145 r Smpl1Lenght;
#X obj 25 43 r save_rec;
#X obj -45 210 r loop1ctrl;
#X connect 0 0 2 0;
#X connect 3 0 6 0;
#X connect 4 0 5 0;
#X connect 4 0 3 0;
#X connect 5 0 4 1;
#X connect 6 0 7 0;
#X connect 7 0 8 0;
#X connect 8 0 1 0;
#X connect 9 0 3 1;
#X connect 10 0 11 0;
#X connect 11 0 4 0;
#X connect 12 0 9 0;
#X connect 13 0 11 0;
#X connect 14 0 2 0;
#X restore 144 154 pd SAVE;
#X obj 36 254 table rec;
#X obj 364 618 throw~ torec;
#X obj 41 588 s Smpl1Lenght;
#X obj 40 484 r timerStart;
#X obj 416 120 lop~ 9000;
#X obj 431 143 r loop1Som;
#X obj 425 259 r loop1Set;
#X obj 67 518 r timerStop;
#X obj 251 186 t b b;
#X obj 412 341 r loop1ctrl;
#X obj 251 45 r loop1Go;
#N canvas 727 153 450 411 MUTE 0;
#X obj 127 225 vline~;
#X obj 216 -51 r muteOff;
#X obj 216 -24 sel 0 1;
#X msg 215 2 1;
#X msg 242 1 0;
#X obj 119 90 spigot 1;
#X obj 126 257 outlet~;
#X obj 120 -32 r masterMute;
#X obj 215 44 t b f;
#X obj 127 170 f 1;
#X msg 127 197 \$1 5;
#X obj 256 174 f 1;
#X floatatom 237 118 5 0 0 0 - - -;
#X floatatom 247 207 5 0 0 0 - - -;
#X obj 287 130 bng 15 250 50 0 empty empty empty 17 7 0 10 -262144
-1 -1;
#X obj 297 212 bng 15 250 50 0 empty empty empty 17 7 0 10 -262144
-1 -1;
#X connect 0 0 6 0;
#X connect 1 0 2 0;
#X connect 2 0 3 0;
#X connect 2 1 4 0;
#X connect 3 0 8 0;
#X connect 4 0 8 0;
#X connect 5 0 9 0;
#X connect 7 0 5 0;
#X connect 8 0 9 0;
#X connect 8 1 5 1;
#X connect 9 0 10 0;
#X connect 10 0 0 0;
#X connect 11 0 13 0;
#X connect 11 0 15 0;
#X connect 12 0 11 0;
#X connect 14 0 11 0;
#X restore 340 542 pd MUTE;
#N canvas 25 106 537 300 LOAD 0;
#X obj 4 35 bng 15 250 50 0 empty load_rec load_recording 17 7 0 10
-262144 -1 -1;
#X obj 4 79 openpanel;
#X obj 3 155 soundfiler;
#X msg 3 115 read -resize \$1 loop1;
#X obj 231 49 r wordbutton-load;
#X symbolatom 208 194 48 0 0 0 - - -;
#X text 206 94 loadsave - androidy file panels;
#X obj 208 173 r hello-load;
#X msg 208 113 \; hello load /tmp wav;
#X connect 0 0 1 0;
#X connect 1 0 3 0;
#X connect 3 0 2 0;
#X connect 4 0 1 0;
#X connect 7 0 5 0;
#X restore 144 176 pd LOAD;
#X obj 35 278 table loop2_;
#X text 38 462 get the duration (msec) of loop1;
#X msg 39 74 \; pd dsp 1 \; loop1 resize 3.528e+06 \; masterMute 1
\; skipp 0;
#X obj 431 171 line~;
#X msg 280 209 \; loop1Som 0 5;
#X obj 250 245 delay 5;
#X obj 120 328 r Smpl1Lenght;
#X obj 37 405 metro;
#X obj 37 434 s loop1ctrl;
#X obj 438 394 r loop1_cut;
#X obj 439 451 line~;
#X obj 439 423 pack 0 5;
#X obj 402 404 *~;
#X obj 37 329 r loopEngine;
#X msg 270 105 \; loopEngine 0 \; loop1 const 0 \; timerStart bang
\; loop1Som 1 5 \; loop1Set start \;;
#X obj 310 463 lop~ 12000;
#N canvas 1 75 450 300 Instructions 0;
#X text 15 28 SKIPP - write in loop2 \, create loop2_ concatenating
in reverse order loop2 from 0 to skip and from skip to end (samplelentgh)
;
#X restore 38 155 pd Instructions;
#X obj 537 399 hsl 462 45 0 1 0 1 skipp empty empty -2 -8 0 10 -83269
-1 -1 0 1;
#N canvas 450 247 793 408 effects 0;
#X obj 212 108 vd~ delayunit;
#X obj 151 280 delwrite~ delayunit 2000;
#X obj 149 186 +~;
#X obj 249 13 r length;
#X obj 249 54 mtof~;
#X obj 212 86 /~;
#X obj 175 13 loadbang;
#X msg 175 34 bang;
#X obj 175 55 samplerate~;
#X obj 249 34 + 24;
#X obj 151 258 hip~ 5;
#X obj 211 149 *~ 0;
#X obj 232 128 r feedback;
#X obj 127 113 *~ 1;
#X obj 94 260 vcf~;
#X obj 160 215 r q;
#X obj 59 156 r cutoff;
#X obj 69 227 mtof;
#X obj 95 292 *~;
#X obj 68 187 + 24;
#X obj 92 20 inlet~;
#X obj 148 92 r effVol;
#X obj 96 359 outlet~;
#X obj 378 269 s cutoff-r;
#X obj 688 275 s q-r;
#X obj 567 269 s length-r;
#X obj 97 329 expr~ tanh($v1);
#X obj 529 69 tgl 15 0 empty empty empty 17 7 0 10 -262144 -1 -1 0
1;
#N canvas 1 75 450 300 idea_switch 0;
#X obj 86 17 r pitch;
#X obj 224 23 r roll;
#X obj 66 188 s cutoff-r;
#X obj 245 132 + 1;
#X obj 245 155 / 2;
#X obj 245 178 * 20;
#X obj 245 201 s q-r;
#X obj 148 186 s length-r;
#X obj 88 77 + 1;
#X obj 88 100 / 2;
#X obj 88 123 * 127;
#X obj 296 204 s feedback-r;
#X obj 295 133 + 1;
#X obj 295 156 / 2;
#X obj 295 179 * 1.5;
#X obj 142 121 tgl 15 0 empty empty empty 17 7 0 10 -262144 -1 -1 0
1;
#X obj 142 98 r switchEff;
#X obj 320 75 tgl 15 0 empty empty empty 17 7 0 10 -262144 -1 -1 0
1;
#X obj 320 52 r switchEff;
#N canvas 1 75 450 300 LabIO_demux-2 0;
#X obj 98 137 spigot;
#X obj 236 139 spigot;
#X obj 131 106 == 0;
#X obj 277 101 == 1;
#X obj 262 45 inlet control;
#X obj 79 250 outlet;
#X obj 94 48 inlet signal, f 15;
#X obj 237 246 outlet;
#X connect 0 0 5 0;
#X connect 1 0 7 0;
#X connect 2 0 0 1;
#X connect 3 0 1 1;
#X connect 4 0 3 0;
#X connect 4 0 2 0;
#X connect 6 0 0 0;
#X connect 6 0 1 0;
#X restore 242 101 pd LabIO_demux-2;
#N canvas 1 75 450 300 LabIO_demux-2 0;
#X obj 98 137 spigot;
#X obj 236 139 spigot;
#X obj 131 106 == 0;
#X obj 277 101 == 1;
#X obj 262 45 inlet control;
#X obj 79 250 outlet;
#X obj 94 48 inlet signal, f 15;
#X obj 237 246 outlet;
#X connect 0 0 5 0;
#X connect 1 0 7 0;
#X connect 2 0 0 1;
#X connect 3 0 1 1;
#X connect 4 0 3 0;
#X connect 4 0 2 0;
#X connect 6 0 0 0;
#X connect 6 0 1 0;
#X restore 93 151 pd LabIO_demux-2;
#X obj 87 46 spigot;
#X obj 152 32 tgl 15 0 empty empty empty 17 7 0 10 -262144 -1 -1 0
1;
#X obj 239 56 spigot;
#X obj 296 29 tgl 15 0 empty empty empty 17 7 0 10 -262144 -1 -1 0
1;
#X connect 0 0 21 0;
#X connect 1 0 23 0;
#X connect 3 0 4 0;
#X connect 4 0 5 0;
#X connect 5 0 6 0;
#X connect 8 0 9 0;
#X connect 9 0 10 0;
#X connect 10 0 20 0;
#X connect 12 0 13 0;
#X connect 13 0 14 0;
#X connect 14 0 11 0;
#X connect 15 0 20 1;
#X connect 16 0 15 0;
#X connect 17 0 19 1;
#X connect 18 0 17 0;
#X connect 19 0 3 0;
#X connect 19 1 12 0;
#X connect 20 0 2 0;
#X connect 20 1 7 0;
#X connect 21 0 8 0;
#X connect 22 0 21 1;
#X connect 23 0 19 0;
#X connect 24 0 23 1;
#X restore 623 51 pd idea_switch;
#X obj 369 202 * 127;
#X obj 470 269 s feedback-r;
#X obj 472 220 * 1.5;
#X obj 657 103 sel 1 0;
#X obj 526 41 r accON;
#X msg 715 136 0;
#X floatatom 217 210 5 0 0 0 - - -;
#X obj 408 27 r accXYZ;
#X obj 391 82 unpack f f f;
#X obj 430 185 * 127;
#X obj 417 56 spigot;
#X obj 484 173 * -1;
#X obj 494 196 + 1;
#X obj 377 141 abs;
#X obj 430 141 abs;
#X obj 476 143 abs;
#X obj 390 109 *;
#X obj 426 108 *;
#X obj 465 110 *;
#X obj 651 227 line;
#X msg 644 139 3 500;
#X text 517 174 accZ *;
#X text 375 323 * accZ vale 1 quando é horizontal \, aqui queremos
oque seja 1 (máxima) quando é vertical;
#X text 503 138 superfluo (accXYZ são pow2);
#X connect 0 0 11 0;
#X connect 2 0 10 0;
#X connect 2 0 14 0;
#X connect 3 0 9 0;
#X connect 4 0 5 1;
#X connect 5 0 0 0;
#X connect 6 0 7 0;
#X connect 7 0 8 0;
#X connect 8 0 5 0;
#X connect 9 0 4 0;
#X connect 10 0 1 0;
#X connect 11 0 2 1;
#X connect 12 0 11 1;
#X connect 13 0 2 0;
#X connect 14 0 18 0;
#X connect 15 0 14 2;
#X connect 15 0 18 1;
#X connect 16 0 19 0;
#X connect 17 0 14 1;
#X connect 18 0 26 0;
#X connect 19 0 17 0;
#X connect 20 0 13 0;
#X connect 21 0 13 1;
#X connect 26 0 22 0;
#X connect 27 0 32 0;
#X connect 27 0 39 1;
#X connect 29 0 23 0;
#X connect 31 0 30 0;
#X connect 32 0 49 0;
#X connect 32 1 34 0;
#X connect 33 0 27 0;
#X connect 34 0 24 0;
#X connect 34 0 25 0;
#X connect 34 0 30 0;
#X connect 34 0 23 0;
#X connect 35 0 14 2;
#X connect 35 0 18 1;
#X connect 36 0 39 0;
#X connect 37 0 45 0;
#X connect 37 0 45 1;
#X connect 37 1 46 0;
#X connect 37 1 46 1;
#X connect 37 2 47 0;
#X connect 37 2 47 1;
#X connect 38 0 25 0;
#X connect 39 0 37 0;
#X connect 40 0 41 0;
#X connect 41 0 31 0;
#X connect 42 0 29 0;
#X connect 43 0 38 0;
#X connect 44 0 40 0;
#X connect 45 0 42 0;
#X connect 46 0 43 0;
#X connect 47 0 44 0;
#X connect 48 0 24 0;
#X connect 49 0 48 0;
#X restore 431 537 pd effects;
#X obj 415 493 r effOn;
#N canvas 1 75 450 300 LabIO_spigot~ 0;
#X obj 126 32 inlet~;
#X obj 80 252 outlet~;
#X obj 96 209 *~;
#X obj 268 35 inlet;
#X obj 267 69 tgl 15 0 empty empty empty 17 7 0 10 -262144 -1 -1 1
1;
#X obj 254 98 sel 1 0;
#X obj 209 257 outlet~;
#X obj 225 214 *~;
#X msg 162 173 1;
#X msg 127 170 0;
#X msg 259 184 1;
#X msg 288 185 0;
#X obj 238 128 t b b;
#X obj 292 128 t b b;
#X connect 0 0 2 0;
#X connect 0 0 7 0;
#X connect 2 0 1 0;
#X connect 3 0 4 0;
#X connect 4 0 5 0;
#X connect 5 0 12 0;
#X connect 5 1 13 0;
#X connect 7 0 6 0;
#X connect 8 0 2 1;
#X connect 9 0 2 1;
#X connect 10 0 7 1;
#X connect 11 0 7 1;
#X connect 12 0 10 0;
#X connect 12 1 9 0;
#X connect 13 0 8 0;
#X connect 13 1 11 0;
#X restore 319 518 pd LabIO_spigot~;
#X msg 250 269 \; timerStop bang \; loop1Set stop \; loopEngine 1 \;
loop1ctrl-r 1 \; Loop1Cut-r 1 \;;
#X connect 2 0 32 0;
#X connect 3 0 15 0;
#X connect 3 1 15 0;
#X connect 6 0 42 0;
#X connect 7 0 25 0;
#X connect 7 1 44 0;
#X connect 8 0 19 0;
#X connect 10 0 4 0;
#X connect 11 0 12 0;
#X connect 12 0 45 0;
#X connect 13 0 14 0;
#X connect 13 0 50 0;
#X connect 14 0 1 0;
#X connect 14 0 1 1;
#X connect 14 0 18 0;
#X connect 15 0 21 0;
#X connect 20 0 8 0;
#X connect 21 0 10 0;
#X connect 22 0 33 0;
#X connect 23 0 4 0;
#X connect 24 0 8 1;
#X connect 25 0 35 0;
#X connect 25 1 34 0;
#X connect 26 0 6 0;
#X connect 27 0 7 0;
#X connect 28 0 14 1;
#X connect 33 0 10 1;
#X connect 35 0 51 0;
#X connect 36 0 37 1;
#X connect 37 0 38 0;
#X connect 39 0 41 0;
#X connect 40 0 42 1;
#X connect 41 0 40 0;
#X connect 42 0 12 0;
#X connect 43 0 37 0;
#X connect 45 0 13 0;
#X connect 48 0 14 0;
#X connect 49 0 50 1;
#X connect 50 1 48 0;
#X restore 493 389 pd audio;
#X obj 326 100 bng 150 250 50 0 loop1ctrl loop1ctrl-r bang_LOOP1 10
74 0 20 -262144 -1 -1;
#X obj 10 256 tgl 150 1 loop2Go loop2Go-r REC2 10 70 0 50 -4034 -1
-1 0 1;
#X obj 168 256 tgl 150 1 Loop2Cut Loop2Cut-r PLAY2 2 70 0 50 -262144
-1 -1 1 1;
#X obj 326 256 bng 150 250 50 0 loop2Reset loop2Reset-r clear_LOOP2
8 76 0 20 -262144 -1 -1;
#X obj 533 63 tgl 80 1 muteOff muteOff-r empty 17 7 0 10 -262144 -1
-1 0 1;
#X obj 438 27 bng 30 250 50 0 \$0-axmode-stop empty stop 0 -7 0 14
-191407 -1 -1;
#X obj 480 28 bng 30 250 50 0 \$0-axmode-normal empty normal 0 -7 0
14 -4034 -1 -1;
#X obj 533 27 bng 30 250 50 0 \$0-axmode-fast empty fast 0 -7 0 14
-260097 -1 -1;
#X obj 580 29 bng 30 250 50 0 \$0-axmode-fastest empty fastest 0 -7
0 14 -258113 -1 -1;
#X obj 331 9 tgl 80 1 effOn effOn-r eff 17 40 0 30 -262144 -1 -1 1
1;
#X obj 184 28 hsl 128 15 -10 10 0 0 empty \$0-ax-rcv ax -20 8 0 10
-262144 -1 -1 0 1;
#X obj 184 44 hsl 128 15 -10 10 0 0 empty \$0-ay-rcv ay -20 8 0 10
-262144 -1 -1 0 1;
#X obj 184 60 hsl 128 15 -10 10 0 0 empty \$0-az-rcv az -20 8 0 10
-262144 -1 -1 0 1;
#X obj 530 174 vsl 32 128 0 1.5 0 1 feedback feedback-r fdback 0 -9
0 10 -262144 -1 -1 8637 0;
#X obj 487 174 vsl 32 128 0 127 0 1 length length-r delay 0 -9 0 10
-262144 -1 -1 2000 0;
#X obj 617 175 vsl 32 128 1 20 0 1 q q-r Q 8 -9 0 10 -262144 -1 -1
1337 0;
#X obj 573 175 vsl 32 128 0 127 0 1 cutoff cutoff-r cutoff 2 -9 0 10
-262144 -1 -1 7743 0;
#X text 567 392 Mick 2020;
#N canvas 106 111 823 613 comm 0;
#X obj 43 37 receive fromGUI;
#X obj 44 66 list trim;
#X obj 141 184 s loop2Reset-r;
#X obj 166 147 s effOn-r;
#X obj 250 149 s muteOff-r;
#X obj 44 184 s loop1ctrl-r;
#X obj 74 151 sel 1;
#X obj 337 162 s length-r;
#X obj 338 130 * 127;
#X obj 424 159 s feedback-r;
#X obj 418 132 * 1.5;
#X obj 519 167 s cutoff-r;
#X obj 515 142 * 127;
#X obj 607 165 s q-r;
#N canvas 228 251 975 516 LCDtoggles 0;
#X obj 58 35 receive fromGUI;
#X obj 54 140 unpack f f f;
#X obj 57 65 list trim;
#X floatatom 11 143 5 0 0 0 - - -;
#X obj 325 87 send toGUI;
#X obj 57 99 route /LCD1 /LCD2 /LCD3 /LCD4;
#X obj 57 209 tgl 15 0 empty empty empty 17 7 0 10 -257985 -1 -1 0
1;
#X obj 56 239 sel 1 0;
#X msg 122 346 list /LCD1 clear;
#X msg 55 377 list /LCD1 paintrect 0 0 1 1;
#X obj 87 276 t b b;
#X msg 80 312 list /LCD2 paintrect 0 0 1 1;
#X msg 379 347 list /LCD2 clear;
#X msg 583 366 list /LCD3 clear;
#X msg 520 399 list /LCD3 paintrect 0 0 1 1;
#X msg 838 374 list /LCD4 clear;
#X msg 545 332 list /LCD4 paintrect 0 0 1 1;
#X obj 518 161 unpack f f f;
#X obj 522 194 sel 1;
#X obj 521 230 tgl 15 0 empty empty empty 17 7 0 10 -257985 -1 -1 0
1;
#X obj 520 260 sel 1 0;
#X obj 551 297 t b b;
#X obj 58 173 sel 1 0;
#X obj 316 167 unpack f f f;
#X obj 319 236 tgl 15 0 empty empty empty 17 7 0 10 -4034 -1 -1 0 1
;
#X obj 318 266 sel 1 0;
#X obj 349 303 t b b;
#X obj 320 200 sel 1 0;
#X obj 771 165 unpack f f f;
#X obj 774 234 tgl 15 0 empty empty empty 17 7 0 10 -4034 -1 -1 0 1
;
#X obj 773 264 sel 1 0;
#X obj 804 301 t b b;
#X obj 775 198 sel 1 0;
#X obj 332 49 r toGUI_toggles;
#X obj 816 456 s toGUI_toggles;
#X obj 541 463 s toGUI_toggles;
#X obj 54 453 s toGUI_toggles;
#X obj 321 467 s toGUI_toggles;
#X msg 152 276 1;
#X msg 665 284 1;
#X msg 753 340 list /LCD4 paintrect 0 0 1 1;
#X msg 287 383 list /LCD2 paintrect 0 0 1 1;
#X obj 94 209 s loop1Go-r;
#X obj 551 227 s loop2Go-r;
#X obj 803 235 s Loop2Cut-r;
#X obj 356 235 s Loop1Cut-r;
#X text 252 15 colored toggles control the recording/playing of loops
;
#X connect 0 0 2 0;
#X connect 1 0 3 0;
#X connect 1 0 22 0;
#X connect 2 0 5 0;
#X connect 5 0 1 0;
#X connect 5 1 23 0;
#X connect 5 2 17 0;
#X connect 5 3 28 0;
#X connect 6 0 7 0;
#X connect 6 0 42 0;
#X connect 7 0 9 0;
#X connect 7 1 10 0;
#X connect 8 0 36 0;
#X connect 9 0 36 0;
#X connect 10 0 11 0;
#X connect 10 0 38 0;
#X connect 10 1 8 0;
#X connect 11 0 36 0;
#X connect 12 0 37 0;
#X connect 13 0 35 0;
#X connect 14 0 35 0;
#X connect 15 0 34 0;
#X connect 16 0 35 0;
#X connect 17 0 18 0;
#X connect 18 0 19 0;
#X connect 19 0 20 0;
#X connect 19 0 43 0;
#X connect 20 0 14 0;
#X connect 20 1 21 0;
#X connect 21 0 16 0;
#X connect 21 0 39 0;
#X connect 21 1 13 0;
#X connect 22 0 6 0;
#X connect 23 0 27 0;
#X connect 24 0 25 0;
#X connect 24 0 45 0;
#X connect 25 0 41 0;
#X connect 25 1 26 0;
#X connect 26 1 12 0;
#X connect 27 0 24 0;
#X connect 28 0 32 0;
#X connect 29 0 30 0;
#X connect 29 0 44 0;
#X connect 30 0 40 0;
#X connect 30 1 31 0;
#X connect 31 1 15 0;
#X connect 32 0 29 0;
#X connect 33 0 4 0;
#X connect 38 0 24 0;
#X connect 39 0 29 0;
#X connect 40 0 34 0;
#X connect 41 0 37 0;
#X restore 223 44 pd LCDtoggles;
#X text 185 24 to use lcd as toggles trick;
#X obj 44 96 route /BANG_LOOP1 /CLEAR_LOOP2 /effOn /muteOff /delay
/fb /cutoff /Q /accON, f 112;
#X obj 695 145 s accON;
#X obj 95 248 receive fromSystem;
#X obj 88 541 send toGUI;
#X obj 99 306 route /tilts /accel /gyro /motion /accelFrequency /gyroFrequency
/motionFrequency;
#N canvas 0 22 834 545 speedlim 0;
#X msg 83 139 1;
#X obj 57 164 spigot 1;
#X obj 87 93 t b b;
#X msg 112 139 0;
#X obj 85 115 delay 200;
#X obj 60 49 inlet;
#X obj 59 213 outlet;
#X connect 0 0 1 1;
#X connect 1 0 2 0;
#X connect 1 0 6 0;
#X connect 2 0 4 0;
#X connect 2 1 3 0;
#X connect 3 0 1 1;
#X connect 4 0 0 0;
#X connect 5 0 1 0;
#X restore 99 373 pd speedlim;
#N canvas 1 343 261 277 speedlim 0;
#X msg 83 139 1;
#X obj 57 164 spigot 1;
#X obj 87 93 t b b;
#X msg 112 139 0;
#X obj 85 115 delay 200;
#X obj 60 49 inlet;
#X obj 59 213 outlet;
#X connect 0 0 1 1;
#X connect 1 0 2 0;
#X connect 1 0 6 0;
#X connect 2 0 4 0;
#X connect 2 1 3 0;
#X connect 3 0 1 1;
#X connect 4 0 0 0;
#X connect 5 0 1 0;
#X restore 112 399 pd speedlim;
#N canvas 1 354 253 266 speedlim 0;
#X msg 83 139 1;
#X obj 57 164 spigot 1;
#X obj 87 93 t b b;
#X msg 112 139 0;
#X obj 85 115 delay 200;
#X obj 60 49 inlet;
#X obj 59 213 outlet;
#X connect 0 0 1 1;
#X connect 1 0 2 0;
#X connect 1 0 6 0;
#X connect 2 0 4 0;
#X connect 2 1 3 0;
#X connect 3 0 1 1;
#X connect 4 0 0 0;
#X connect 5 0 1 0;
#X restore 186 371 pd speedlim;
#N canvas 0 22 834 545 speedlim 0;
#X msg 83 139 1;
#X obj 57 164 spigot 1;
#X obj 87 93 t b b;
#X msg 112 139 0;
#X obj 85 115 delay 200;
#X obj 60 49 inlet;
#X obj 59 213 outlet;
#X connect 0 0 1 1;
#X connect 1 0 2 0;
#X connect 1 0 6 0;
#X connect 2 0 4 0;
#X connect 2 1 3 0;
#X connect 3 0 1 1;
#X connect 4 0 0 0;
#X connect 5 0 1 0;
#X restore 201 397 pd speedlim;
#X msg 96 439 list /tiltLabel x: \$1 y: \$2;
#X msg 116 462 list /accelLabel x: \$1 y: \$2 z: \$3;
#X msg 133 484 list /gyroLabel roll: \$1 pitch: \$2 yaw: \$3;
#X msg 153 508 list /motionLabel roll: \$1 pitch: \$2 yaw: \$3;
#X text 91 356 custom abstraction to slow down message rate to GUI
;
#X text 227 288 last few return the current update freq;
#X obj 94 277 list trim;
#X obj 31 456 s accXYZ;
#X obj 579 529 send toGUI;
#X msg 579 366 list /myLabel_ X \$1 Y \$2 Z \$3;
#X obj 654 403 r totAcc;
#X obj 550 316 r accXYZ;
#X msg 637 495 list /myLabelT TotAcc \$1;
#N canvas 250 178 660 513 acc2PitchRoll 0;
#X obj 43 269 expr $f1 / $f2;
#X obj 43 301 atan;
#X obj 86 308 expr if ($f1 > 0 \, 3.14159 \, -3.14159);
#X obj 41 332 pack f f f;
#X obj 317 274 expr $f1 / $f2;
#X obj 337 304 atan;
#X obj 376 306 expr if ($f1 > 0 \, 3.14159 \, -3.14159);
#X obj 346 334 pack f f f;
#X obj 347 362 expr if ($f3 <= 0 \, $f1 + $f2 \, $f1);
#X obj 345 385 * -1;
#X obj 304 168 expr sqrt(pow($f1 \, 2) + pow($f2 \, 2) + pow($f3 \,
2) );
#X text 437 188 total acceleration;
#X text 168 269 PITCH ROLL CALCULATION;
#X obj 30 427 nbx 5 20 -1e+37 1e+37 0 0 empty empty empty 0 -8 0 15
-262144 -1 -1 0 256;
#X obj 392 438 nbx 5 20 -1e+37 1e+37 0 0 empty empty empty 0 -8 0 15
-262144 -1 -1 0 256;
#X obj 550 214 nbx 5 20 -1e+37 1e+37 0 0 empty empty empty 0 -8 0 15
-262144 -1 -1 0 256;
#X obj 80 211 t f f;
#X obj 284 224 t f f;
#X obj 130 210 t f f;
#X obj 40 359 expr if ($f3 <= 0 \, $f1 + $f2 \, $f1);
#X obj 45 396 / 3.14;
#X text 91 393 pitch -1 \, 1;
#X obj 337 225 t f f;
#X obj 341 410 / 3.14;
#X text 394 392 roll -1 \, 1;
#X obj 525 244 s totAcc;
#X obj 122 429 s pitch;
#X obj 342 441 s roll;
#X obj 241 62 r accXYZ;
#X obj 251 89 unpack f f f;
#X connect 0 0 1 0;
#X connect 1 0 3 0;
#X connect 2 0 3 1;
#X connect 3 0 19 0;
#X connect 4 0 5 0;
#X connect 5 0 7 0;
#X connect 6 0 7 1;
#X connect 7 0 8 0;
#X connect 8 0 9 0;
#X connect 9 0 23 0;
#X connect 10 0 15 0;
#X connect 10 0 25 0;
#X connect 16 0 0 0;
#X connect 16 1 2 0;
#X connect 17 0 4 0;
#X connect 17 1 6 0;
#X connect 18 0 0 1;
#X connect 18 1 3 2;
#X connect 19 0 20 0;
#X connect 20 0 13 0;
#X connect 20 0 26 0;
#X connect 22 0 4 1;
#X connect 22 1 7 2;
#X connect 23 0 14 0;
#X connect 23 0 27 0;
#X connect 28 0 29 0;
#X connect 29 0 17 0;
#X connect 29 0 10 0;
#X connect 29 1 16 0;
#X connect 29 1 22 0;
#X connect 29 1 10 1;
#X connect 29 2 18 0;
#X connect 29 2 10 2;
#X restore 644 268 pd acc2PitchRoll;
#N canvas 0 22 834 545 speedlim 0;
#X msg 83 139 1;
#X obj 57 164 spigot 1;
#X obj 87 93 t b b;
#X msg 112 139 0;
#X obj 85 115 delay 200;
#X obj 60 49 inlet;
#X obj 59 213 outlet;
#X connect 0 0 1 1;
#X connect 1 0 2 0;
#X connect 1 0 6 0;
#X connect 2 0 4 0;
#X connect 2 1 3 0;
#X connect 3 0 1 1;
#X connect 4 0 0 0;
#X connect 5 0 1 0;
#X restore 647 452 pd speedlim;
#X obj 605 140 * 20;
#X connect 0 0 1 0;
#X connect 1 0 16 0;
#X connect 6 0 5 0;
#X connect 8 0 7 0;
#X connect 10 0 9 0;
#X connect 12 0 11 0;
#X connect 16 0 6 0;
#X connect 16 1 2 0;
#X connect 16 2 3 0;
#X connect 16 3 4 0;
#X connect 16 4 8 0;
#X connect 16 5 10 0;
#X connect 16 6 12 0;
#X connect 16 7 40 0;
#X connect 16 8 17 0;
#X connect 18 0 31 0;
#X connect 20 0 21 0;
#X connect 20 1 22 0;
#X connect 20 2 23 0;
#X connect 20 3 24 0;
#X connect 21 0 25 0;
#X connect 22 0 26 0;
#X connect 22 0 32 0;
#X connect 23 0 27 0;
#X connect 24 0 28 0;
#X connect 25 0 19 0;
#X connect 26 0 19 0;
#X connect 27 0 19 0;
#X connect 28 0 19 0;
#X connect 31 0 20 0;
#X connect 34 0 33 0;
#X connect 35 0 39 0;
#X connect 36 0 34 0;
#X connect 37 0 33 0;
#X connect 39 0 37 0;
#X connect 40 0 13 0;
#X restore 70 47 pd comm;
#X text 567 381 LooperAcc;
